<svg width="1440" height="1024" viewBox="0 0 1440 1024" fill="none" xmlns="http://www.w3.org/2000/svg">
<rect width="1440" height="1024" fill="#755836"/>
<ellipse cx="154" cy="330.5" rx="51" ry="4.5" fill="#ED770A"/>
<ellipse cx="154" cy="330.5" rx="51" ry="4.5" fill="#ED770A"/>
<ellipse cx="154" cy="330.5" rx="51" ry="4.5" fill="#ED770A"/>
<ellipse cx="154" cy="330.5" rx="51" ry="4.5" fill="#A85305"/>
<ellipse cx="154.5" cy="349.5" rx="70.5" ry="4.5" fill="#C69B00"/>
<ellipse cx="154" cy="368.5" rx="51" ry="4.5" fill="#C80101"/>
<ellipse cx="577" cy="925.5" rx="51" ry="4.5" fill="#ED770A"/>
<ellipse cx="577" cy="925.5" rx="51" ry="4.5" fill="#ED770A"/>
<ellipse cx="577" cy="925.5" rx="51" ry="4.5" fill="#ED770A"/>
<ellipse cx="577" cy="925.5" rx="51" ry="4.5" fill="#A85305"/>
<ellipse cx="577.5" cy="944.5" rx="70.5" ry="4.5" fill="#C69B00"/>
<ellipse cx="577" cy="963.5" rx="51" ry="4.5" fill="#C80101"/>
<ellipse cx="1063" cy="136.5" rx="51" ry="4.5" fill="#ED770A"/>
<ellipse cx="1063" cy="136.5" rx="51" ry="4.5" fill="#ED770A"/>
<ellipse cx="1063" cy="136.5" rx="51" ry="4.5" fill="#ED770A"/>
<ellipse cx="1063" cy="136.5" rx="51" ry="4.5" fill="#A85305"/>
<ellipse cx="1063.5" cy="155.5" rx="70.5" ry="4.5" fill="#C69B00"/>
<ellipse cx="1063" cy="174.5" rx="51" ry="4.5" fill="#C80101"/>
<ellipse cx="1222" cy="738.5" rx="51" ry="4.5" fill="#ED770A"/>
<ellipse cx="1222" cy="738.5" rx="51" ry="4.5" fill="#ED770A"/>
<ellipse cx="1222" cy="738.5" rx="51" ry="4.5" fill="#ED770A"/>
<ellipse cx="1222" cy="738.5" rx="51" ry="4.5" fill="#A85305"/>
<ellipse cx="1222.5" cy="757.5" rx="70.5" ry="4.5" fill="#C69B00"/>
<ellipse cx="1222" cy="776.5" rx="51" ry="4.5" fill="#C80101"/>
</svg>
