<svg width="132" height="113" viewBox="0 0 132 113" fill="none" xmlns="http://www.w3.org/2000/svg">
<g filter="url(#filter0_d)">
<path d="M6.896 90.184C9.008 91.624 11.696 92.872 14.96 93.928C18.32 94.984 22.064 95.512 26.192 95.512C31.376 95.512 35.504 94.6 38.576 92.776C41.744 90.856 44.144 88.072 45.776 84.424C47.408 80.776 48.464 76.312 48.944 71.032C49.424 65.656 49.664 59.56 49.664 52.744V0.759995H59.744V52.744C59.744 60.52 59.36 67.624 58.592 74.056C57.92 80.392 56.432 85.816 54.128 90.328C51.824 94.84 48.464 98.344 44.048 100.84C39.632 103.336 33.68 104.584 26.192 104.584C17.552 104.584 10.16 102.472 4.016 98.248L6.896 90.184ZM119.04 52.696C118.592 52.248 117.76 51.64 116.544 50.872C115.392 50.104 113.952 49.368 112.224 48.664C110.56 47.896 108.736 47.256 106.752 46.744C104.768 46.232 102.752 45.976 100.704 45.976C97.0561 45.976 94.3361 46.648 92.5441 47.992C90.7521 49.336 89.8561 51.224 89.8561 53.656C89.8561 55.064 90.1761 56.248 90.8161 57.208C91.5201 58.104 92.5121 58.904 93.7921 59.608C95.0721 60.312 96.6721 60.952 98.5921 61.528C100.576 62.104 102.848 62.712 105.408 63.352C108.736 64.248 111.744 65.208 114.432 66.232C117.184 67.256 119.488 68.536 121.344 70.072C123.264 71.608 124.736 73.464 125.76 75.64C126.784 77.752 127.296 80.376 127.296 83.512C127.296 87.16 126.592 90.296 125.184 92.92C123.84 95.48 121.984 97.56 119.616 99.16C117.312 100.76 114.624 101.944 111.552 102.712C108.544 103.416 105.376 103.768 102.048 103.768C96.9281 103.768 91.8721 103 86.8801 101.464C81.8881 99.928 77.4081 97.752 73.4401 94.936L79.2961 83.512C79.8721 84.088 80.8961 84.856 82.3681 85.816C83.9041 86.712 85.6961 87.64 87.7441 88.6C89.7921 89.496 92.0641 90.264 94.5601 90.904C97.0561 91.544 99.6161 91.864 102.24 91.864C109.536 91.864 113.184 89.528 113.184 84.856C113.184 83.384 112.768 82.136 111.936 81.112C111.104 80.088 109.92 79.192 108.384 78.424C106.848 77.656 104.992 76.952 102.816 76.312C100.64 75.672 98.2081 74.968 95.5201 74.2C92.2561 73.304 89.4081 72.344 86.9761 71.32C84.6081 70.232 82.6241 68.984 81.0241 67.576C79.4241 66.104 78.2081 64.44 77.3761 62.584C76.6081 60.664 76.2241 58.392 76.2241 55.768C76.2241 52.312 76.8641 49.24 78.1441 46.552C79.4241 43.864 81.1841 41.624 83.4241 39.832C85.7281 38.04 88.3841 36.696 91.3921 35.8C94.4001 34.84 97.6321 34.36 101.088 34.36C105.888 34.36 110.304 35.128 114.336 36.664C118.368 38.136 121.888 39.896 124.896 41.944L119.04 52.696Z" fill="#FFC700"/>
</g>
<defs>
<filter id="filter0_d" x="0.0159912" y="0.759995" width="131.28" height="111.824" filterUnits="userSpaceOnUse" color-interpolation-filters="sRGB">
<feFlood flood-opacity="0" result="BackgroundImageFix"/>
<feColorMatrix in="SourceAlpha" type="matrix" values="0 0 0 0 0 0 0 0 0 0 0 0 0 0 0 0 0 0 127 0"/>
<feOffset dy="4"/>
<feGaussianBlur stdDeviation="2"/>
<feColorMatrix type="matrix" values="0 0 0 0 0 0 0 0 0 0 0 0 0 0 0 0 0 0 0.25 0"/>
<feBlend mode="normal" in2="BackgroundImageFix" result="effect1_dropShadow"/>
<feBlend mode="normal" in="SourceGraphic" in2="effect1_dropShadow" result="shape"/>
</filter>
</defs>
</svg>
